<?xml version="1.0" encoding="UTF-8"?>
<svg width="18px" height="18px" viewBox="0 0 18 18" version="1.1" xmlns="http://www.w3.org/2000/svg" xmlns:xlink="http://www.w3.org/1999/xlink">
    <!-- Generator: Sketch 58 (84663) - https://sketch.com -->
    <title>Artboard</title>
    <desc>Created with Sketch.</desc>
    <g id="Artboard" stroke="none" stroke-width="1" fill="none" fill-rule="evenodd">
        <path d="M1.79421176,13.4444444 L4.55555556,16.2109539 L1.67254336,16.9961156 C1.6268447,17.0012948 1.58070382,17.0012948 1.53500516,16.9961156 C1.39439723,16.9969254 1.25925104,16.9419376 1.15942009,16.8432989 C1.018972,16.7066754 0.966023203,16.5038112 1.02188189,16.3163447 L1.79421176,13.4444444 Z M12.0922559,2.77777778 L15.2222222,5.90909966 L5.91313131,15.2222222 L5.83771044,15.1359896 L5.55218855,14.8503441 L5.14814815,14.4676868 L2.77777778,12.0962899 L12.0922559,2.77777778 Z M14.52104,1.07816947 L14.6027225,1.14463502 L16.8489904,3.39423805 C16.9456374,3.49023812 17,3.62091749 17,3.75724217 C17,3.89356686 16.9456374,4.02424623 16.8489904,4.1202463 L15.5267554,5.44444444 L14.8069286,4.72354893 L13.2753823,3.18972868 L12.5555556,2.4739459 L13.8777905,1.14463502 C13.9263425,1.09808836 13.9835942,1.06160134 14.0462606,1.0372676 C14.2022042,0.975829442 14.3778641,0.990962408 14.52104,1.07816947 Z" id="Combined-Shape" fill="#FFFFFF" fill-rule="nonzero"></path>
    </g>
</svg>